PathFileType	4	(X/Y/Z)	Sub_1_bilateral_squat02_.centers_.trc
DataRate	CameraRate	NumFrames	NumMarkers	Units	OrigDataRate	OrigDataStartFrame	OrigNumFrames
60.0	60.0	4	120	mm	100.0	225	597
Frame#	Time		Back_Left_Head		Back_Right_Head		C7		CenterHead		COP_Projection		COP_Projection_GroundY		F_LHIP		F_RHIP		Front_Left_Head		Front_Right_Head		Girdle_Center		Head		JC.L.Elbow		JC.L.Hand		JC.L.Wrist		JC.R.Elbow		JC.R.Hand		JC.R.Wrist		JC_L.Hip		JC_R.Hip		L.Ankle.Center		L.Ankle.Lateral		L.Elbow		L.Hand		L.Heel		L.Hip		L.Iliac.Crest		L.Knee.Center		L.Knee.Lateral		L.PSIS		L.Shank.Front		L.Shank.Rear		L.Shank.Upper		L.Shoulder		L.Thigh.Front		L.Thigh.Rear		L.Thigh.Upper		L.Toe		L.Wrist.Radial		L.Wrist.Ulnar		LAB_Origin		LAB_X		LAB_Y		LAB_Z		LDFA midpoint		LEFT_FOOT_BORDER1		LEFT_FOOT_BORDER2		LEFT_FOOT_BORDER3		LForearmX		LForearmY		LForearmZ		LHandX		LHandY		LHandZ		LHIP		LLowerArmX		LLowerArmY		LLowerArmZ		LMID_MALLEOLI_V		LPFA midpoint		mid_ASIS		Mid_ASIS_Projection		Mid_ASIS_Projection_Lateral		Mid_ASIS_Projection_LateralZ		North_Virtual_Origin		Offset		Pelvis.Center		Pelvis_Center		PelvisX		PelvisY		PelvisZ		R.Ankle.Center		R.Ankle.Lateral		R.Elbow		R.Hand		R.Heel		R.Hip		R.Iliac.Crest		R.Knee.Center		R.Knee.Lateral		R.Shank.Front		R.Shank.Rear		R.Shank.Upper		R.Shoulder		R.Thigh.Front		R.Thigh.Rear		R.Thigh.Upper		R.Toe		R.Wrist.Radial		R.Wrist.Ulnar		RDFA midpoint		RForearmX		RForearmY		RForearmZ		RHandX		RHandY		RHandZ		RHIP		RIGHT_FOOT_BORDER1		RIGHT_FOOT_BORDER2		RIGHT_FOOT_BORDER3		RLowerArmX		RLowerArmY		RLowerArmZ		RMID_MALLEOLI_V		RPFA midpoint		V.Sacral		v3d_lab_lat_distal		v3d_lab_lat_prox		v3d_lab_med_distal		v3d_lab_med_prox		V_L.Hip.skin		V_R.Hip.skin		V_V.Sacral.skin		Virtual_Lab_Origin		X.Shell.Lower.Shank.Left		X.Shell.Lower.Shank.Right		X.Shell.Lower.Thigh.Left		X.Shell.Lower.Thigh.Right		Z_Virtual_Lab_Origin
			X1	Y1	Z1	X2	Y2	Z2	X3	Y3	Z3	X4	Y4	Z4	X5	Y5	Z5	X6	Y6	Z6	X7	Y7	Z7	X8	Y8	Z8	X9	Y9	Z9	X10	Y10	Z10	X11	Y11	Z11	X12	Y12	Z12	X13	Y13	Z13	X14	Y14	Z14	X15	Y15	Z15	X16	Y16	Z16	X17	Y17	Z17	X18	Y18	Z18	X19	Y19	Z19	X20	Y20	Z20	X21	Y21	Z21	X22	Y22	Z22	X23	Y23	Z23	X24	Y24	Z24	X25	Y25	Z25	X26	Y26	Z26	X27	Y27	Z27	X28	Y28	Z28	X29	Y29	Z29	X30	Y30	Z30	X31	Y31	Z31	X32	Y32	Z32	X33	Y33	Z33	X34	Y34	Z34	X35	Y35	Z35	X36	Y36	Z36	X37	Y37	Z37	X38	Y38	Z38	X39	Y39	Z39	X40	Y40	Z40	X41	Y41	Z41	X42	Y42	Z42	X43	Y43	Z43	X44	Y44	Z44	X45	Y45	Z45	X46	Y46	Z46	X47	Y47	Z47	X48	Y48	Z48	X49	Y49	Z49	X50	Y50	Z50	X51	Y51	Z51	X52	Y52	Z52	X53	Y53	Z53	X54	Y54	Z54	X55	Y55	Z55	X56	Y56	Z56	X57	Y57	Z57	X58	Y58	Z58	X59	Y59	Z59	X60	Y60	Z60	X61	Y61	Z61	X62	Y62	Z62	X63	Y63	Z63	X64	Y64	Z64	X65	Y65	Z65	X66	Y66	Z66	X67	Y67	Z67	X68	Y68	Z68	X69	Y69	Z69	X70	Y70	Z70	X71	Y71	Z71	X72	Y72	Z72	X73	Y73	Z73	X74	Y74	Z74	X75	Y75	Z75	X76	Y76	Z76	X77	Y77	Z77	X78	Y78	Z78	X79	Y79	Z79	X80	Y80	Z80	X81	Y81	Z81	X82	Y82	Z82	X83	Y83	Z83	X84	Y84	Z84	X85	Y85	Z85	X86	Y86	Z86	X87	Y87	Z87	X88	Y88	Z88	X89	Y89	Z89	X90	Y90	Z90	X91	Y91	Z91	X92	Y92	Z92	X93	Y93	Z93	X94	Y94	Z94	X95	Y95	Z95	X96	Y96	Z96	X97	Y97	Z97	X98	Y98	Z98	X99	Y99	Z99	X100	Y100	Z100	X101	Y101	Z101	X102	Y102	Z102	X103	Y103	Z103	X104	Y104	Z104	X105	Y105	Z105	X106	Y106	Z106	X107	Y107	Z107	X108	Y108	Z108	X109	Y109	Z109	X110	Y110	Z110	X111	Y111	Z111	X112	Y112	Z112	X113	Y113	Z113	X114	Y114	Z114	X115	Y115	Z115	X116	Y116	Z116	X117	Y117	Z117	X118	Y118	Z118	X119	Y119	Z119	X120	Y120	Z120

225	3.73333	-160.04771	1190.66049	-250.22779	-11.06621	1195.26623	-253.34910	-84.06651	1126.24442	-253.24841	-81.70391	1225.73854	-311.48264	-63.25530	0.00000	23.18938	-63.25530	0.00000	-76.81061	-121.20634	707.39868	33.91178	12.18777	714.58075	29.45228	-152.34163	1256.21074	-369.61617	-24.34918	1258.42877	-371.17748	-87.36877	1110.42376	-312.17442	-82.54311	1312.13169	-261.84597	-249.77105	1031.04484	-582.00170	-217.12891	1135.48332	-851.67039	-225.21551	1090.77951	-793.66619	54.16381	1019.91508	-595.31516	30.32856	1069.76631	-878.72725	25.98652	1086.05552	-807.92753	-108.80394	709.53133	27.72270	0.12985	714.57305	23.08416	-186.72702	71.90610	-145.69763	-222.51639	70.11944	-132.22715	-249.77105	1031.04484	-582.00170	-222.96726	1109.86781	-859.31800	-184.98933	45.95010	-76.82537	-156.05250	737.12218	-42.89332	-206.29445	774.77667	-12.78568	-216.49749	432.07287	-246.08696	-275.69814	438.75009	-226.24109	-113.52546	845.64475	85.48867	-260.18889	201.29923	-189.04588	-264.45021	214.60659	-141.89069	-275.65154	247.59792	-171.84605	-188.31837	1109.50742	-305.67999	-285.56191	542.27970	-129.83426	-266.65730	502.13148	-91.38217	-271.63479	547.30977	-87.14520	-212.06318	43.55787	-287.61378	-195.49768	1085.40319	-798.34513	-254.93335	1096.15605	-788.98731	0.00000	0.00000	-0.00000	999.99994	0.00000	-0.00000	0.00000	0.00000	-999.99994	0.00000	999.99994	-0.00000	-225.21551	1090.77951	-793.66619	-210.30940	32.79037	-286.59963	-215.07236	60.92488	-126.85156	-182.99221	26.18018	-73.77365	-176.69249	1078.93541	-791.37961	-214.50411	1137.44390	-779.25422	-230.76357	1077.28318	-745.84294	-168.07237	1125.83461	-852.26748	-209.17034	1174.03880	-820.84611	-222.61678	1105.14563	-812.30657	-195.85369	654.23184	-32.33986	-206.10866	1086.28393	-793.31052	-244.22188	1142.82044	-774.57539	-253.74415	1081.15677	-741.30501	-191.56950	60.13008	-148.16013	-237.49327	1060.91223	-687.83395	-58.79018	741.62377	-47.03488	-58.79018	0.00000	-47.03488	-63.25530	0.00000	-47.03488	-63.25530	100.00000	-47.03488	0.00000	0.00000	999.99994	-186.11529	1090.42099	-206.02862	-58.73760	745.54343	-41.53983	-63.25530	791.32196	23.18938	41.06522	750.16254	-45.78957	-53.31178	687.87335	-123.05477	-64.96569	826.82416	-99.45879	87.26241	68.35200	-154.06260	115.80860	74.46489	-133.31218	54.16381	1019.91508	-595.31516	24.95727	1095.95851	-874.76369	81.03529	43.04794	-78.02524	38.47214	746.12530	-51.17645	82.11549	790.33366	-14.81681	84.61328	433.29259	-245.47079	140.98552	444.37540	-237.29182	147.21704	238.50244	-185.45129	142.93815	240.21409	-135.43917	160.24435	268.22804	-160.27148	13.58083	1111.34019	-318.66882	156.82823	573.01490	-125.81094	147.52060	514.61845	-104.25023	159.32898	556.52792	-87.43528	115.98812	48.25203	-282.01504	-3.90865	1080.02311	-808.57708	55.88169	1092.08781	-807.27797	25.98652	1086.05552	-807.92753	-22.65707	1074.87611	-804.95852	35.70198	1039.60233	-823.66604	32.26381	1071.32082	-760.56213	-18.22398	1057.82513	-878.95753	41.89348	1022.52053	-867.14786	27.34553	1080.95721	-830.08706	-4.51324	706.66475	20.66677	115.62590	34.56110	-281.49523	108.14380	60.59778	-124.22081	83.85141	21.09254	-76.14732	6.83622	1083.01186	-810.76574	65.59707	1045.63440	-823.01643	55.49810	1075.97202	-759.94787	85.46992	60.77192	-149.50068	40.07517	1052.98533	-701.62134	-67.72042	841.02003	93.41366	0.00000	-1.00000	-1.00000	0.00000	0.00000	-1.00000	0.00000	-1.00000	1.00000	0.00000	0.00000	1.00000	-155.99992	741.04184	-37.39826	38.52471	750.04496	-45.68140	-67.35417	837.12735	87.91139	0.00000	0.00000	-0.00000	-264.07136	180.15229	-163.53402	145.60172	199.82018	-155.47356	-274.84591	493.88661	-133.39212	155.19250	522.38907	-151.56556	0.00000	999.99994	-0.00000
226	3.75000	-160.35260	1211.39732	-246.34695	-11.36533	1215.76277	-249.54848	-84.13882	1145.38644	-249.47983	-81.96063	1246.56398	-307.53856	-63.96763	0.00000	20.16279	-63.96763	0.00000	-79.83721	-122.04946	719.40833	29.74042	11.36151	726.30062	25.32883	-152.55593	1277.36530	-365.52860	-24.59281	1279.35123	-367.14316	-87.48118	1130.62523	-308.92439	-82.80295	1332.61804	-257.54520	-249.70013	1050.83833	-579.33650	-216.54406	1154.39405	-849.41621	-224.82808	1110.02041	-791.22966	54.36729	1039.11382	-592.71122	30.38856	1087.86272	-876.19685	26.02945	1104.39300	-805.50632	-109.74145	721.65324	23.87483	-0.49022	726.49951	19.18440	-186.73483	71.96744	-145.64257	-222.46339	70.13461	-132.16429	-249.70013	1050.83833	-579.33650	-222.40296	1128.76058	-856.94265	-185.03847	45.91284	-76.80361	-157.11880	750.29348	-46.54668	-207.36522	787.33597	-15.54262	-214.18139	433.30284	-243.38829	-274.16160	440.22175	-224.24641	-114.16944	857.00522	83.12502	-259.53230	202.04202	-188.01954	-263.60860	215.04866	-140.74880	-274.69418	248.33157	-170.48971	-188.94948	1129.99646	-302.35438	-284.52136	546.38936	-130.63473	-265.33766	507.32135	-90.97219	-270.78954	552.83179	-88.18481	-212.11608	43.70851	-287.58318	-195.07835	1104.57330	-795.83616	-254.57780	1115.46756	-786.62311	0.00000	0.00000	-0.00000	999.99994	0.00000	-0.00000	0.00000	0.00000	-999.99994	0.00000	999.99994	-0.00000	-224.82808	1110.02041	-791.22966	-210.78726	33.12447	-286.76659	-215.51585	61.40741	-127.04371	-183.44425	26.69682	-73.93832	-176.32437	1098.11322	-788.86196	-214.06521	1156.70652	-776.92680	-230.44496	1096.65514	-743.37759	-167.51015	1144.62443	-849.88562	-208.54196	1193.08363	-818.77186	-222.16847	1124.26667	-809.91061	-197.08701	667.36478	-36.97359	-205.76288	1105.51636	-790.87439	-243.81486	1162.15355	-772.32021	-253.45487	1100.58856	-738.90150	-191.68044	60.69896	-147.96038	-237.26410	1080.42940	-685.28307	-59.57305	754.62050	-50.73456	-59.57305	0.00000	-50.73456	-63.96763	-0.00000	-50.73456	-63.96763	100.00000	-50.73456	0.00000	0.00000	999.99994	-186.57182	1109.00402	-202.74408	-59.50609	758.47401	-45.19310	-63.96763	803.53283	20.16279	40.30388	762.90150	-49.47818	-54.16314	701.78065	-127.39533	-65.58706	840.45629	-102.13000	86.15734	69.26433	-152.36324	115.81804	74.56086	-133.19657	54.36729	1039.11382	-592.71122	24.90271	1114.02662	-872.33258	81.05523	43.07304	-78.00264	37.97270	758.94752	-54.92245	81.97975	801.87983	-17.54858	82.71353	434.66985	-242.38882	139.55606	445.88903	-234.60610	146.52878	239.39367	-183.76683	142.13414	240.77633	-133.77307	159.60105	268.96566	-158.72200	13.98712	1131.25387	-315.49440	155.54290	577.52241	-126.89170	145.66291	519.90414	-103.61460	157.75007	562.22350	-87.98056	116.04925	48.42843	-281.91092	-3.84706	1098.21679	-806.10289	55.90595	1110.56930	-804.90982	26.02945	1104.39300	-805.50632	-22.56873	1093.02137	-802.52300	35.94606	1057.92711	-821.08129	32.34416	1089.84640	-758.08780	-18.11734	1075.73215	-876.35122	42.14416	1040.70667	-864.44499	27.39171	1099.22716	-827.59785	-5.06860	718.71630	16.45811	115.59614	35.25913	-281.90479	108.40031	61.40510	-124.63521	84.14829	21.95521	-76.49592	6.90045	1101.27839	-808.39373	65.82263	1064.10339	-820.48476	55.56237	1094.61316	-757.52539	85.34890	61.64395	-149.33726	40.19837	1071.75346	-699.10877	-68.36222	852.44521	91.06013	0.00000	-1.00000	-1.00000	0.00000	0.00000	-1.00000	0.00000	-1.00000	1.00000	0.00000	0.00000	1.00000	-157.05185	754.14699	-41.00522	38.03966	762.80103	-49.38098	-68.00157	848.61842	85.51148	0.00000	0.00000	-0.00000	-263.44368	180.77035	-162.57779	144.98747	200.50073	-154.01192	-273.50986	498.04102	-132.80658	153.64101	526.12457	-151.10311	0.00000	999.99994	-0.00000
227	3.76667	-160.58366	1231.77947	-242.42445	-11.67067	1236.02874	-245.81061	-84.18018	1164.34142	-245.63468	-82.23945	1267.09561	-303.60077	-64.67641	0.00000	16.77075	-64.67641	0.00000	-83.22925	-122.96021	731.20472	25.19017	10.46667	737.80865	20.81860	-152.80823	1298.16256	-361.39093	-24.86168	1299.97549	-363.13844	-87.61202	1150.64691	-305.57026	-83.07584	1352.83000	-253.25625	-249.65131	1070.35365	-576.68682	-215.63407	1172.89859	-847.03267	-224.20554	1128.81461	-788.56072	54.42886	1058.13573	-589.99203	30.49932	1105.95869	-873.58122	26.03949	1122.86918	-802.88808	-110.72044	733.58589	19.66164	-1.17078	738.20853	14.87404	-186.79881	71.94543	-145.32886	-222.39651	70.14494	-131.98104	-249.65131	1070.35365	-576.68682	-221.58277	1147.21840	-854.44310	-185.08019	45.83626	-76.72893	-158.23730	763.30852	-50.51085	-208.47181	799.57750	-18.67740	-211.49936	434.61173	-240.37868	-272.44730	441.66268	-222.03471	-114.80629	868.17271	80.66477	-258.77873	202.80160	-186.71021	-262.69134	215.50724	-139.33673	-273.59672	249.06596	-168.84788	-189.53780	1150.32176	-298.87775	-283.38075	550.49935	-131.41806	-264.09865	513.01218	-90.77511	-269.91617	558.39265	-89.23034	-212.21192	43.95924	-287.46138	-194.49614	1123.23602	-793.07779	-253.91494	1134.39319	-784.04365	0.00000	0.00000	-0.00000	999.99994	0.00000	-0.00000	0.00000	0.00000	-999.99994	0.00000	999.99994	-0.00000	-224.20554	1128.81461	-788.56072	-210.74434	33.69165	-287.01575	-215.96806	61.88271	-127.29210	-184.12455	27.09333	-74.10109	-175.75339	1116.72229	-786.07821	-213.28201	1175.49695	-774.36809	-229.95575	1115.60374	-740.68167	-166.64256	1162.91325	-847.37931	-207.50762	1211.71228	-816.57847	-221.44693	1143.00220	-807.37897	-198.39894	680.36511	-41.92554	-205.13267	1124.23690	-788.18333	-242.99137	1181.07565	-769.85102	-252.93282	1119.64183	-736.27936	-191.79800	61.24984	-147.77612	-236.92843	1099.58416	-682.62375	-60.42511	767.43581	-54.78549	-60.42511	0.00000	-54.78549	-64.67641	-0.00000	-54.78549	-64.67641	100.00000	-54.78549	0.00000	0.00000	999.99994	-186.94154	1127.42590	-199.34770	-60.34058	771.22056	-49.19705	-64.67641	815.51370	16.77075	39.47536	775.43246	-53.55922	-55.16415	715.53810	-132.09789	-66.27326	853.91461	-105.11104	85.94846	69.67432	-152.56191	115.80376	74.64652	-133.07735	54.42886	1058.13573	-589.99203	25.00180	1132.17638	-869.85210	81.08740	43.11245	-78.00578	37.38710	771.56316	-59.06013	81.77424	813.15694	-20.65023	81.15420	436.14304	-239.51862	138.24339	447.35776	-231.96629	145.83162	240.35407	-182.12930	141.31972	241.26101	-132.13301	158.71722	269.67637	-156.81404	14.31375	1150.97190	-312.26280	154.28392	582.00707	-128.10757	144.06509	525.15764	-103.10791	156.29477	567.79759	-88.63903	116.04768	48.43976	-281.90142	-3.77063	1116.70699	-803.51078	55.84960	1129.03136	-802.26541	26.03949	1122.86918	-802.88808	-22.55317	1111.48323	-799.87041	35.97459	1076.37007	-818.35153	32.36725	1108.44060	-755.43523	-17.99688	1093.78947	-873.72977	42.27792	1058.87257	-861.57464	27.43727	1117.56914	-825.04447	-5.68739	730.55755	11.85823	115.56336	35.83041	-282.35117	108.72841	62.19213	-125.10149	84.30375	22.94114	-76.88716	6.84769	1119.70636	-805.70780	65.78463	1082.53216	-817.72888	55.53219	1113.19252	-754.84142	85.15401	62.55952	-149.20437	40.23417	1090.50241	-696.44007	-68.92772	863.59150	88.32699	0.00000	-1.00000	-1.00000	0.00000	0.00000	-1.00000	0.00000	-1.00000	1.00000	0.00000	0.00000	1.00000	-158.15279	767.09322	-44.92241	37.47162	775.34786	-53.47169	-68.57831	859.83295	82.73119	0.00000	0.00000	-0.00000	-262.79419	181.39571	-161.47079	144.35334	201.10647	-152.63772	-272.08548	502.15037	-132.14945	152.15577	529.94411	-150.71966	0.00000	999.99994	-0.00000
228	3.78333	-160.75854	1251.84865	-238.46096	-12.05667	1256.00147	-242.33223	-84.17742	1183.07193	-241.55821	-82.60700	1287.31808	-299.77491	-65.36665	0.00000	13.11338	-65.36665	0.00000	-86.88661	-123.86005	742.72309	20.24295	9.58277	749.02478	15.91149	-153.15732	1318.63468	-357.21758	-25.16805	1320.42151	-359.09569	-87.76249	1170.50578	-301.96230	-83.18934	1372.88917	-248.99137	-249.47954	1089.25552	-573.71877	-214.76178	1190.83518	-844.26256	-223.47980	1146.82546	-785.79815	54.43789	1076.78434	-587.16639	30.52224	1124.20074	-870.76177	26.31448	1141.17536	-800.24136	-111.64755	745.23784	15.00373	-1.87401	749.64047	10.12106	-186.74010	71.99679	-145.16547	-222.31537	70.17478	-131.86210	-249.47954	1089.25552	-573.71877	-220.68081	1165.15789	-851.66118	-185.10960	45.79763	-76.71272	-159.27081	776.07798	-54.83510	-209.59944	811.59838	-22.30652	-209.06289	435.75703	-237.14467	-270.63759	443.12043	-219.53797	-115.47954	879.14723	77.95693	-257.99223	203.62142	-185.35288	-261.69919	215.96663	-137.94063	-272.47140	249.83962	-167.09658	-190.06371	1170.48291	-295.16602	-282.14159	554.61679	-132.25722	-262.86216	518.60953	-90.44897	-268.91796	563.93451	-90.27782	-212.24851	44.10155	-287.38240	-193.72435	1141.24735	-790.24394	-253.23526	1152.40356	-781.35246	0.00000	0.00000	-0.00000	999.99994	0.00000	-0.00000	0.00000	0.00000	-999.99994	0.00000	999.99994	-0.00000	-223.47980	1146.82546	-785.79815	-210.84817	34.32035	-287.25281	-216.37431	62.16419	-127.47836	-184.38945	27.44434	-74.32675	-175.02803	1134.77115	-783.13049	-212.62099	1193.57466	-771.77668	-229.35446	1133.81741	-737.87868	-165.76012	1180.89508	-844.43802	-206.77124	1229.68894	-813.82352	-220.67673	1160.97585	-804.59612	-199.62604	693.12569	-47.30667	-204.43632	1142.25888	-785.32049	-242.37648	1199.15278	-767.33099	-252.37010	1137.85720	-733.52308	-191.69696	61.78386	-147.61779	-236.47966	1118.04048	-679.75846	-61.25872	780.00889	-59.19464	-61.25872	0.00000	-59.19464	-65.36665	0.00000	-59.19463	-65.36665	100.00000	-59.19463	0.00000	0.00000	999.99994	-187.14684	1145.59134	-195.76889	-61.15676	783.71947	-53.55688	-65.36665	827.22294	13.11338	38.66436	787.72288	-57.99688	-56.15128	729.12769	-137.19079	-66.94118	867.15931	-108.36817	85.75133	70.07515	-153.42160	115.79237	74.74144	-133.03919	54.43789	1076.78434	-587.16639	25.20413	1150.39497	-867.05905	81.11728	43.22048	-78.03913	36.75338	783.93985	-63.55416	81.48800	824.27478	-24.15598	78.90746	437.96945	-236.43625	136.99783	448.84323	-229.35686	145.21468	241.46348	-180.65888	140.62789	241.69055	-130.62979	157.91239	270.33802	-155.11807	14.53872	1170.52867	-308.75861	153.06657	586.46505	-129.28073	142.50854	530.39346	-102.65451	155.02586	573.34979	-89.38968	116.00319	48.18568	-282.03424	-3.64771	1135.16850	-800.77975	56.27667	1147.18234	-799.70290	26.31448	1141.17536	-800.24136	-22.34959	1130.11584	-797.16045	35.93340	1094.57318	-815.59407	32.58192	1126.82553	-752.75656	-18.05620	1112.36311	-870.81086	42.00030	1077.04760	-858.72688	27.62662	1135.88214	-822.23179	-6.35352	742.10530	6.85883	115.76334	36.31163	-282.74489	109.15655	62.85749	-125.51644	84.17307	23.96470	-77.29815	7.21239	1138.17762	-803.10997	65.89556	1100.58005	-815.05562	55.86604	1131.46137	-752.24041	84.86373	63.47271	-149.05535	40.37619	1108.97974	-693.70381	-69.47459	874.43698	85.42140	0.00000	-1.00000	-1.00000	0.00000	0.00000	-1.00000	0.00000	-1.00000	1.00000	0.00000	0.00000	1.00000	-159.16886	779.78851	-49.19735	36.85532	787.65038	-57.91641	-69.13672	870.75205	79.77611	0.00000	0.00000	-0.00000	-262.07298	182.03511	-160.32886	143.77690	201.69159	-151.42484	-270.66586	506.51094	-131.50190	150.40228	533.20651	-150.41878	0.00000	999.99994	-0.00000
